<mxfile host="app.diagrams.net" modified="2023-05-21T08:57:45.439Z" agent="Mozilla/5.0 (Windows NT 10.0; Win64; x64) AppleWebKit/537.36 (KHTML, like Gecko) Chrome/113.0.0.0 Safari/537.36" etag="dThuuhzmGRKexvZyHnqg" version="21.1.8" type="device">
  <diagram name="Page-1" id="-FnmqqFS3XLua9rtfWJz">
    <mxGraphModel dx="1793" dy="955" grid="1" gridSize="10" guides="1" tooltips="1" connect="1" arrows="1" fold="1" page="1" pageScale="1" pageWidth="827" pageHeight="1169" math="0" shadow="0">
      <root>
        <mxCell id="0" />
        <mxCell id="1" parent="0" />
        <mxCell id="JsxV9mpCJOxWXloCZP8o-30" value="" style="rounded=0;whiteSpace=wrap;html=1;" vertex="1" parent="1">
          <mxGeometry x="60" y="207" width="320" height="310" as="geometry" />
        </mxCell>
        <mxCell id="JsxV9mpCJOxWXloCZP8o-22" style="edgeStyle=orthogonalEdgeStyle;rounded=0;orthogonalLoop=1;jettySize=auto;html=1;" edge="1" parent="1">
          <mxGeometry relative="1" as="geometry">
            <mxPoint x="200" y="378.70000000000005" as="targetPoint" />
            <mxPoint x="120" y="378.70000000000005" as="sourcePoint" />
          </mxGeometry>
        </mxCell>
        <mxCell id="JsxV9mpCJOxWXloCZP8o-3" value="" style="verticalLabelPosition=bottom;html=1;verticalAlign=top;align=center;strokeColor=none;fillColor=#00BEF2;shape=mxgraph.azure.laptop;pointerEvents=1;" vertex="1" parent="1">
          <mxGeometry x="300" y="347" width="50" height="30" as="geometry" />
        </mxCell>
        <mxCell id="JsxV9mpCJOxWXloCZP8o-23" style="edgeStyle=orthogonalEdgeStyle;rounded=0;orthogonalLoop=1;jettySize=auto;html=1;" edge="1" parent="1">
          <mxGeometry relative="1" as="geometry">
            <mxPoint x="200" y="428.70000000000005" as="targetPoint" />
            <mxPoint x="120" y="428.70000000000005" as="sourcePoint" />
          </mxGeometry>
        </mxCell>
        <mxCell id="JsxV9mpCJOxWXloCZP8o-21" style="edgeStyle=orthogonalEdgeStyle;rounded=0;orthogonalLoop=1;jettySize=auto;html=1;" edge="1" parent="1">
          <mxGeometry relative="1" as="geometry">
            <mxPoint x="200" y="328.70000000000005" as="targetPoint" />
            <mxPoint x="120" y="328.70000000000005" as="sourcePoint" />
          </mxGeometry>
        </mxCell>
        <mxCell id="JsxV9mpCJOxWXloCZP8o-20" style="edgeStyle=orthogonalEdgeStyle;rounded=0;orthogonalLoop=1;jettySize=auto;html=1;" edge="1" parent="1">
          <mxGeometry relative="1" as="geometry">
            <mxPoint x="200" y="278.70000000000005" as="targetPoint" />
            <mxPoint x="120" y="278.70000000000005" as="sourcePoint" />
          </mxGeometry>
        </mxCell>
        <mxCell id="JsxV9mpCJOxWXloCZP8o-24" style="edgeStyle=orthogonalEdgeStyle;rounded=0;orthogonalLoop=1;jettySize=auto;html=1;" edge="1" parent="1">
          <mxGeometry relative="1" as="geometry">
            <mxPoint x="200" y="478.70000000000005" as="targetPoint" />
            <mxPoint x="120" y="478.70000000000005" as="sourcePoint" />
          </mxGeometry>
        </mxCell>
        <mxCell id="JsxV9mpCJOxWXloCZP8o-19" style="edgeStyle=orthogonalEdgeStyle;rounded=0;orthogonalLoop=1;jettySize=auto;html=1;" edge="1" parent="1">
          <mxGeometry relative="1" as="geometry">
            <mxPoint x="200" y="238.70000000000005" as="targetPoint" />
            <mxPoint x="120" y="238.70000000000005" as="sourcePoint" />
          </mxGeometry>
        </mxCell>
        <mxCell id="JsxV9mpCJOxWXloCZP8o-17" value="" style="endArrow=none;html=1;rounded=0;" edge="1" parent="1">
          <mxGeometry width="50" height="50" relative="1" as="geometry">
            <mxPoint x="200" y="480" as="sourcePoint" />
            <mxPoint x="200" y="240" as="targetPoint" />
          </mxGeometry>
        </mxCell>
        <mxCell id="JsxV9mpCJOxWXloCZP8o-25" value="" style="endArrow=classic;html=1;rounded=0;entryX=0.08;entryY=0.5;entryDx=0;entryDy=0;entryPerimeter=0;" edge="1" parent="1" target="JsxV9mpCJOxWXloCZP8o-3">
          <mxGeometry width="50" height="50" relative="1" as="geometry">
            <mxPoint x="200" y="360" as="sourcePoint" />
            <mxPoint x="300" y="430" as="targetPoint" />
          </mxGeometry>
        </mxCell>
        <mxCell id="JsxV9mpCJOxWXloCZP8o-26" value="" style="verticalLabelPosition=bottom;html=1;verticalAlign=top;align=center;strokeColor=none;fillColor=#00BEF2;shape=mxgraph.azure.laptop;pointerEvents=1;" vertex="1" parent="1">
          <mxGeometry x="300" y="247" width="50" height="30" as="geometry" />
        </mxCell>
        <mxCell id="JsxV9mpCJOxWXloCZP8o-27" value="" style="verticalLabelPosition=bottom;html=1;verticalAlign=top;align=center;strokeColor=none;fillColor=#00BEF2;shape=mxgraph.azure.laptop;pointerEvents=1;" vertex="1" parent="1">
          <mxGeometry x="300" y="440" width="50" height="30" as="geometry" />
        </mxCell>
        <mxCell id="JsxV9mpCJOxWXloCZP8o-28" value="" style="endArrow=classic;html=1;rounded=0;entryX=0.08;entryY=0.5;entryDx=0;entryDy=0;entryPerimeter=0;" edge="1" parent="1">
          <mxGeometry width="50" height="50" relative="1" as="geometry">
            <mxPoint x="200" y="454" as="sourcePoint" />
            <mxPoint x="304" y="456" as="targetPoint" />
          </mxGeometry>
        </mxCell>
        <mxCell id="JsxV9mpCJOxWXloCZP8o-29" value="" style="endArrow=classic;html=1;rounded=0;entryX=0.08;entryY=0.5;entryDx=0;entryDy=0;entryPerimeter=0;" edge="1" parent="1">
          <mxGeometry width="50" height="50" relative="1" as="geometry">
            <mxPoint x="200" y="261" as="sourcePoint" />
            <mxPoint x="304" y="263" as="targetPoint" />
          </mxGeometry>
        </mxCell>
        <mxCell id="JsxV9mpCJOxWXloCZP8o-31" value="" style="image;aspect=fixed;perimeter=ellipsePerimeter;html=1;align=center;shadow=0;dashed=0;spacingTop=3;image=img/lib/active_directory/cluster_server.svg;" vertex="1" parent="1">
          <mxGeometry x="520" y="270" width="50" height="50" as="geometry" />
        </mxCell>
        <mxCell id="JsxV9mpCJOxWXloCZP8o-32" value="" style="image;aspect=fixed;perimeter=ellipsePerimeter;html=1;align=center;shadow=0;dashed=0;spacingTop=3;image=img/lib/active_directory/cluster_server.svg;" vertex="1" parent="1">
          <mxGeometry x="520" y="370.4" width="50" height="50" as="geometry" />
        </mxCell>
        <mxCell id="JsxV9mpCJOxWXloCZP8o-34" value="" style="endArrow=classic;html=1;rounded=0;entryX=0;entryY=0.5;entryDx=0;entryDy=0;" edge="1" parent="1" target="JsxV9mpCJOxWXloCZP8o-31">
          <mxGeometry width="50" height="50" relative="1" as="geometry">
            <mxPoint x="350" y="260" as="sourcePoint" />
            <mxPoint x="490" y="287.4" as="targetPoint" />
            <Array as="points" />
          </mxGeometry>
        </mxCell>
        <mxCell id="JsxV9mpCJOxWXloCZP8o-35" value="" style="endArrow=classic;html=1;rounded=0;entryX=-0.12;entryY=0.532;entryDx=0;entryDy=0;entryPerimeter=0;" edge="1" parent="1" target="JsxV9mpCJOxWXloCZP8o-32">
          <mxGeometry width="50" height="50" relative="1" as="geometry">
            <mxPoint x="350" y="260" as="sourcePoint" />
            <mxPoint x="520" y="272" as="targetPoint" />
          </mxGeometry>
        </mxCell>
        <mxCell id="JsxV9mpCJOxWXloCZP8o-37" value="" style="endArrow=classic;html=1;rounded=0;exitX=0.92;exitY=0.5;exitDx=0;exitDy=0;exitPerimeter=0;" edge="1" parent="1" source="JsxV9mpCJOxWXloCZP8o-3">
          <mxGeometry width="50" height="50" relative="1" as="geometry">
            <mxPoint x="360" y="270" as="sourcePoint" />
            <mxPoint x="520" y="300" as="targetPoint" />
            <Array as="points" />
          </mxGeometry>
        </mxCell>
        <mxCell id="JsxV9mpCJOxWXloCZP8o-38" value="" style="endArrow=classic;html=1;rounded=0;entryX=-0.164;entryY=0.659;entryDx=0;entryDy=0;entryPerimeter=0;exitX=0.92;exitY=0.5;exitDx=0;exitDy=0;exitPerimeter=0;" edge="1" parent="1" source="JsxV9mpCJOxWXloCZP8o-3" target="JsxV9mpCJOxWXloCZP8o-32">
          <mxGeometry width="50" height="50" relative="1" as="geometry">
            <mxPoint x="356" y="370" as="sourcePoint" />
            <mxPoint x="520" y="507" as="targetPoint" />
          </mxGeometry>
        </mxCell>
        <mxCell id="JsxV9mpCJOxWXloCZP8o-39" value="" style="endArrow=classic;html=1;rounded=0;entryX=-0.069;entryY=0.902;entryDx=0;entryDy=0;entryPerimeter=0;exitX=0.92;exitY=0.5;exitDx=0;exitDy=0;exitPerimeter=0;" edge="1" parent="1" source="JsxV9mpCJOxWXloCZP8o-27" target="JsxV9mpCJOxWXloCZP8o-31">
          <mxGeometry width="50" height="50" relative="1" as="geometry">
            <mxPoint x="370" y="280" as="sourcePoint" />
            <mxPoint x="534" y="417" as="targetPoint" />
          </mxGeometry>
        </mxCell>
        <mxCell id="JsxV9mpCJOxWXloCZP8o-40" value="" style="endArrow=classic;html=1;rounded=0;entryX=-0.116;entryY=0.824;entryDx=0;entryDy=0;entryPerimeter=0;exitX=0.92;exitY=0.5;exitDx=0;exitDy=0;exitPerimeter=0;" edge="1" parent="1" source="JsxV9mpCJOxWXloCZP8o-27" target="JsxV9mpCJOxWXloCZP8o-32">
          <mxGeometry width="50" height="50" relative="1" as="geometry">
            <mxPoint x="380" y="290" as="sourcePoint" />
            <mxPoint x="544" y="427" as="targetPoint" />
          </mxGeometry>
        </mxCell>
        <mxCell id="JsxV9mpCJOxWXloCZP8o-45" value="" style="editableCssRules=.*;html=1;shape=image;verticalLabelPosition=bottom;labelBackgroundColor=#ffffff;verticalAlign=top;aspect=fixed;imageAspect=0;image=data:image/svg+xml,PHN2ZyB4bWxucz0iaHR0cDovL3d3dy53My5vcmcvMjAwMC9zdmciIHhtbG5zOnY9Imh0dHBzOi8vdmVjdGEuaW8vbmFubyIgd2lkdGg9IjE4LjMxOTk5OTY5NDgyNDIyIiBoZWlnaHQ9IjIwLjAwMDAwMTkwNzM0ODYzMyIgdmlld0JveD0iMCAwIDE4LjMxOTk5OTY5NDgyNDIyIDIwLjAwMDAwMTkwNzM0ODYzMyI+JiN4YTsJPHN0eWxlIHR5cGU9InRleHQvY3NzIj4mI3hhOwkuc3Qwe2ZpbGw6IzY2OWRmNjt9JiN4YTsJLnN0MXtmaWxsOiM0Mjg1ZjQ7fSYjeGE7CS5zdDJ7ZmlsbDojYWVjYmZhO30mI3hhOwk8L3N0eWxlPiYjeGE7CTxkZWZzPiYjeGE7CQk8ZmlsdGVyIGlkPSJBIiB4PSI0LjY0IiB5PSI0LjE5IiB3aWR0aD0iMTQuNzMiIGhlaWdodD0iMTIuNzYiIGZpbHRlclVuaXRzPSJ1c2VyU3BhY2VPblVzZSIgY29sb3ItaW50ZXJwb2xhdGlvbi1maWx0ZXJzPSJzUkdCIj4mI3hhOwkJCTxmZUZsb29kIGZsb29kLWNvbG9yPSIjZmZmIi8+JiN4YTsJCQk8ZmVCbGVuZCBpbj0iU291cmNlR3JhcGhpYyIvPiYjeGE7CQk8L2ZpbHRlcj4mI3hhOwkJPG1hc2sgaWQ9IkIiIHg9IjQuNjQiIHk9IjQuMTkiIHdpZHRoPSIxNC43MyIgaGVpZ2h0PSIxMi43NiIgbWFza1VuaXRzPSJ1c2VyU3BhY2VPblVzZSI+JiN4YTsJCQk8Y2lyY2xlIGN4PSIxMiIgY3k9IjEyLjIzIiByPSIzLjU4IiBmaWx0ZXI9InVybCgjQSkiLz4mI3hhOwkJPC9tYXNrPiYjeGE7CTwvZGVmcz4mI3hhOwk8ZyBjbGFzcz0ic3QwIj4mI3hhOwkJPGNpcmNsZSBjeD0iMTYuMTMiIGN5PSI2LjIxIiByPSIxLjcyIi8+JiN4YTsJCTxjaXJjbGUgY3g9IjIuMTkiIGN5PSI2LjIxIiByPSIxLjcyIi8+JiN4YTsJCTxjaXJjbGUgY3g9IjkuMTYiIGN5PSIxOC4yOCIgcj0iMS43MiIvPiYjeGE7CTwvZz4mI3hhOwk8ZyBtYXNrPSJ1cmwoI0IpIiB0cmFuc2Zvcm09InRyYW5zbGF0ZSgtMi44NCAtMikiPiYjeGE7CQk8cGF0aCB0cmFuc2Zvcm09Im1hdHJpeCguNSAtLjg3IC44NyAuNSAtNC41OSAyMC41MykiIGQ9Ik0xNC42OSAxMC4yMmgxLjU5djguMDRoLTEuNTl6IiBjbGFzcz0ic3QxIi8+JiN4YTsJCTxwYXRoIHRyYW5zZm9ybT0icm90YXRlKDMzMCA4LjUyMyAxNC4yNDQpIiBkPSJNNC40OSAxMy40NWg4LjA0djEuNTlINC40OXoiIGNsYXNzPSJzdDEiLz4mI3hhOwkJPHBhdGggZD0iTTExLjIgNC4xOWgxLjU5djguMDRIMTEuMnoiIGNsYXNzPSJzdDEiLz4mI3hhOwk8L2c+JiN4YTsJPGcgY2xhc3M9InN0MiI+JiN4YTsJCTxjaXJjbGUgY3g9IjkuMTYiIGN5PSIxMC4yMyIgcj0iMi43OCIvPiYjeGE7CQk8Y2lyY2xlIGN4PSIyLjE5IiBjeT0iMTQuMjUiIHI9IjIuMTkiLz4mI3hhOwkJPGNpcmNsZSBjeD0iMTYuMTMiIGN5PSIxNC4yNSIgcj0iMi4xOSIvPiYjeGE7CQk8Y2lyY2xlIGN4PSI5LjE2IiBjeT0iMi4xOSIgcj0iMi4xOSIvPiYjeGE7CTwvZz4mI3hhOzwvc3ZnPg==;" vertex="1" parent="1">
          <mxGeometry x="710" y="330" width="36" height="40" as="geometry" />
        </mxCell>
        <mxCell id="JsxV9mpCJOxWXloCZP8o-47" value="" style="endArrow=classic;html=1;rounded=0;entryX=0;entryY=0.25;entryDx=0;entryDy=0;exitX=1;exitY=0.5;exitDx=0;exitDy=0;" edge="1" parent="1" source="JsxV9mpCJOxWXloCZP8o-31" target="JsxV9mpCJOxWXloCZP8o-45">
          <mxGeometry width="50" height="50" relative="1" as="geometry">
            <mxPoint x="670" y="242" as="sourcePoint" />
            <mxPoint x="840" y="277" as="targetPoint" />
            <Array as="points" />
          </mxGeometry>
        </mxCell>
        <mxCell id="JsxV9mpCJOxWXloCZP8o-48" value="" style="endArrow=classic;html=1;rounded=0;exitX=0.8;exitY=0.592;exitDx=0;exitDy=0;exitPerimeter=0;" edge="1" parent="1" source="JsxV9mpCJOxWXloCZP8o-32" target="JsxV9mpCJOxWXloCZP8o-45">
          <mxGeometry width="50" height="50" relative="1" as="geometry">
            <mxPoint x="542" y="443" as="sourcePoint" />
            <mxPoint x="710" y="400" as="targetPoint" />
            <Array as="points">
              <mxPoint x="700" y="360" />
            </Array>
          </mxGeometry>
        </mxCell>
        <mxCell id="JsxV9mpCJOxWXloCZP8o-49" value="" style="html=1;verticalLabelPosition=bottom;align=center;labelBackgroundColor=#ffffff;verticalAlign=top;strokeWidth=2;strokeColor=#0080F0;shadow=0;dashed=0;shape=mxgraph.ios7.icons.video_conversation;" vertex="1" parent="1">
          <mxGeometry x="80" y="233" width="30" height="15" as="geometry" />
        </mxCell>
        <mxCell id="JsxV9mpCJOxWXloCZP8o-50" value="" style="html=1;verticalLabelPosition=bottom;align=center;labelBackgroundColor=#ffffff;verticalAlign=top;strokeWidth=2;strokeColor=#0080F0;shadow=0;dashed=0;shape=mxgraph.ios7.icons.video_conversation;" vertex="1" parent="1">
          <mxGeometry x="80" y="271" width="30" height="15" as="geometry" />
        </mxCell>
        <mxCell id="JsxV9mpCJOxWXloCZP8o-51" value="" style="html=1;verticalLabelPosition=bottom;align=center;labelBackgroundColor=#ffffff;verticalAlign=top;strokeWidth=2;strokeColor=#0080F0;shadow=0;dashed=0;shape=mxgraph.ios7.icons.video_conversation;" vertex="1" parent="1">
          <mxGeometry x="80" y="316" width="30" height="15" as="geometry" />
        </mxCell>
        <mxCell id="JsxV9mpCJOxWXloCZP8o-52" value="" style="html=1;verticalLabelPosition=bottom;align=center;labelBackgroundColor=#ffffff;verticalAlign=top;strokeWidth=2;strokeColor=#0080F0;shadow=0;dashed=0;shape=mxgraph.ios7.icons.video_conversation;" vertex="1" parent="1">
          <mxGeometry x="80" y="370" width="30" height="15" as="geometry" />
        </mxCell>
        <mxCell id="JsxV9mpCJOxWXloCZP8o-53" value="" style="html=1;verticalLabelPosition=bottom;align=center;labelBackgroundColor=#ffffff;verticalAlign=top;strokeWidth=2;strokeColor=#0080F0;shadow=0;dashed=0;shape=mxgraph.ios7.icons.video_conversation;" vertex="1" parent="1">
          <mxGeometry x="80" y="420" width="30" height="15" as="geometry" />
        </mxCell>
        <mxCell id="JsxV9mpCJOxWXloCZP8o-54" value="" style="html=1;verticalLabelPosition=bottom;align=center;labelBackgroundColor=#ffffff;verticalAlign=top;strokeWidth=2;strokeColor=#0080F0;shadow=0;dashed=0;shape=mxgraph.ios7.icons.video_conversation;" vertex="1" parent="1">
          <mxGeometry x="80" y="470" width="30" height="15" as="geometry" />
        </mxCell>
        <mxCell id="JsxV9mpCJOxWXloCZP8o-55" value="" style="image;html=1;image=img/lib/clip_art/computers/Server_128x128.png" vertex="1" parent="1">
          <mxGeometry x="827" y="171" width="80" height="80" as="geometry" />
        </mxCell>
        <mxCell id="JsxV9mpCJOxWXloCZP8o-56" value="" style="image;html=1;image=img/lib/clip_art/computers/Server_128x128.png" vertex="1" parent="1">
          <mxGeometry x="827" y="271" width="80" height="80" as="geometry" />
        </mxCell>
        <mxCell id="JsxV9mpCJOxWXloCZP8o-57" value="" style="image;html=1;image=img/lib/clip_art/computers/Server_128x128.png" vertex="1" parent="1">
          <mxGeometry x="827" y="364" width="80" height="80" as="geometry" />
        </mxCell>
        <mxCell id="JsxV9mpCJOxWXloCZP8o-58" value="" style="image;html=1;image=img/lib/clip_art/computers/Server_128x128.png" vertex="1" parent="1">
          <mxGeometry x="827" y="449" width="80" height="80" as="geometry" />
        </mxCell>
        <mxCell id="JsxV9mpCJOxWXloCZP8o-59" value="" style="image;html=1;image=img/lib/clip_art/computers/Server_128x128.png" vertex="1" parent="1">
          <mxGeometry x="920" y="171" width="80" height="80" as="geometry" />
        </mxCell>
        <mxCell id="JsxV9mpCJOxWXloCZP8o-60" value="" style="image;html=1;image=img/lib/clip_art/computers/Server_128x128.png" vertex="1" parent="1">
          <mxGeometry x="920" y="271" width="80" height="80" as="geometry" />
        </mxCell>
        <mxCell id="JsxV9mpCJOxWXloCZP8o-61" value="" style="image;html=1;image=img/lib/clip_art/computers/Server_128x128.png" vertex="1" parent="1">
          <mxGeometry x="920" y="364" width="80" height="80" as="geometry" />
        </mxCell>
        <mxCell id="JsxV9mpCJOxWXloCZP8o-62" value="" style="image;html=1;image=img/lib/clip_art/computers/Server_128x128.png" vertex="1" parent="1">
          <mxGeometry x="920" y="449" width="80" height="80" as="geometry" />
        </mxCell>
        <mxCell id="JsxV9mpCJOxWXloCZP8o-63" value="" style="endArrow=classic;html=1;rounded=0;exitX=-0.013;exitY=0.669;exitDx=0;exitDy=0;exitPerimeter=0;" edge="1" parent="1" source="JsxV9mpCJOxWXloCZP8o-55">
          <mxGeometry width="50" height="50" relative="1" as="geometry">
            <mxPoint x="580" y="305" as="sourcePoint" />
            <mxPoint x="740" y="340" as="targetPoint" />
            <Array as="points" />
          </mxGeometry>
        </mxCell>
        <mxCell id="JsxV9mpCJOxWXloCZP8o-64" value="" style="endArrow=classic;html=1;rounded=0;exitX=0;exitY=0.5;exitDx=0;exitDy=0;" edge="1" parent="1" source="JsxV9mpCJOxWXloCZP8o-56">
          <mxGeometry width="50" height="50" relative="1" as="geometry">
            <mxPoint x="836" y="235" as="sourcePoint" />
            <mxPoint x="750" y="350" as="targetPoint" />
            <Array as="points" />
          </mxGeometry>
        </mxCell>
        <mxCell id="JsxV9mpCJOxWXloCZP8o-65" value="" style="endArrow=classic;html=1;rounded=0;exitX=-0.072;exitY=0.374;exitDx=0;exitDy=0;exitPerimeter=0;entryX=1;entryY=0.75;entryDx=0;entryDy=0;" edge="1" parent="1" source="JsxV9mpCJOxWXloCZP8o-57" target="JsxV9mpCJOxWXloCZP8o-45">
          <mxGeometry width="50" height="50" relative="1" as="geometry">
            <mxPoint x="837" y="321" as="sourcePoint" />
            <mxPoint x="760" y="360" as="targetPoint" />
            <Array as="points" />
          </mxGeometry>
        </mxCell>
        <mxCell id="JsxV9mpCJOxWXloCZP8o-66" value="" style="endArrow=classic;html=1;rounded=0;exitX=0;exitY=0.25;exitDx=0;exitDy=0;" edge="1" parent="1" source="JsxV9mpCJOxWXloCZP8o-58">
          <mxGeometry width="50" height="50" relative="1" as="geometry">
            <mxPoint x="831" y="404" as="sourcePoint" />
            <mxPoint x="740" y="370" as="targetPoint" />
            <Array as="points" />
          </mxGeometry>
        </mxCell>
        <mxCell id="JsxV9mpCJOxWXloCZP8o-68" value="" style="image;aspect=fixed;perimeter=ellipsePerimeter;html=1;align=center;shadow=0;dashed=0;spacingTop=3;image=img/lib/active_directory/database_server.svg;" vertex="1" parent="1">
          <mxGeometry x="1170" y="314" width="41" height="50" as="geometry" />
        </mxCell>
        <mxCell id="JsxV9mpCJOxWXloCZP8o-69" value="" style="endArrow=classic;html=1;rounded=0;exitX=1;exitY=0.5;exitDx=0;exitDy=0;entryX=0;entryY=0.25;entryDx=0;entryDy=0;" edge="1" parent="1" source="JsxV9mpCJOxWXloCZP8o-59" target="JsxV9mpCJOxWXloCZP8o-68">
          <mxGeometry width="50" height="50" relative="1" as="geometry">
            <mxPoint x="836" y="235" as="sourcePoint" />
            <mxPoint x="750" y="350" as="targetPoint" />
            <Array as="points" />
          </mxGeometry>
        </mxCell>
        <mxCell id="JsxV9mpCJOxWXloCZP8o-70" value="" style="endArrow=classic;html=1;rounded=0;exitX=1.001;exitY=0.419;exitDx=0;exitDy=0;exitPerimeter=0;" edge="1" parent="1" source="JsxV9mpCJOxWXloCZP8o-60">
          <mxGeometry width="50" height="50" relative="1" as="geometry">
            <mxPoint x="1010" y="221" as="sourcePoint" />
            <mxPoint x="1170" y="338" as="targetPoint" />
            <Array as="points" />
          </mxGeometry>
        </mxCell>
        <mxCell id="JsxV9mpCJOxWXloCZP8o-71" value="" style="endArrow=classic;html=1;rounded=0;exitX=1.015;exitY=0.418;exitDx=0;exitDy=0;exitPerimeter=0;" edge="1" parent="1" source="JsxV9mpCJOxWXloCZP8o-61">
          <mxGeometry width="50" height="50" relative="1" as="geometry">
            <mxPoint x="1020" y="231" as="sourcePoint" />
            <mxPoint x="1170" y="350" as="targetPoint" />
            <Array as="points" />
          </mxGeometry>
        </mxCell>
        <mxCell id="JsxV9mpCJOxWXloCZP8o-72" value="" style="endArrow=classic;html=1;rounded=0;exitX=1;exitY=0.5;exitDx=0;exitDy=0;entryX=0.044;entryY=1.058;entryDx=0;entryDy=0;entryPerimeter=0;" edge="1" parent="1" source="JsxV9mpCJOxWXloCZP8o-62" target="JsxV9mpCJOxWXloCZP8o-68">
          <mxGeometry width="50" height="50" relative="1" as="geometry">
            <mxPoint x="1030" y="241" as="sourcePoint" />
            <mxPoint x="1202" y="358" as="targetPoint" />
            <Array as="points" />
          </mxGeometry>
        </mxCell>
        <mxCell id="JsxV9mpCJOxWXloCZP8o-73" value="" style="image;aspect=fixed;perimeter=ellipsePerimeter;html=1;align=center;shadow=0;dashed=0;spacingTop=3;image=img/lib/active_directory/web_server.svg;" vertex="1" parent="1">
          <mxGeometry x="1360" y="215.5" width="40" height="50" as="geometry" />
        </mxCell>
        <mxCell id="JsxV9mpCJOxWXloCZP8o-76" value="" style="sketch=0;points=[[0,0,0],[0.25,0,0],[0.5,0,0],[0.75,0,0],[1,0,0],[0,1,0],[0.25,1,0],[0.5,1,0],[0.75,1,0],[1,1,0],[0,0.25,0],[0,0.5,0],[0,0.75,0],[1,0.25,0],[1,0.5,0],[1,0.75,0]];outlineConnect=0;fontColor=#232F3E;gradientColor=#F78E04;gradientDirection=north;fillColor=#D05C17;strokeColor=#ffffff;dashed=0;verticalLabelPosition=bottom;verticalAlign=top;align=center;html=1;fontSize=12;fontStyle=0;aspect=fixed;shape=mxgraph.aws4.resourceIcon;resIcon=mxgraph.aws4.kinesis_video_streams;" vertex="1" parent="1">
          <mxGeometry x="1400" y="197" width="28" height="28" as="geometry" />
        </mxCell>
        <mxCell id="JsxV9mpCJOxWXloCZP8o-77" value="" style="sketch=0;points=[[0,0,0],[0.25,0,0],[0.5,0,0],[0.75,0,0],[1,0,0],[0,1,0],[0.25,1,0],[0.5,1,0],[0.75,1,0],[1,1,0],[0,0.25,0],[0,0.5,0],[0,0.75,0],[1,0.25,0],[1,0.5,0],[1,0.75,0]];outlineConnect=0;fontColor=#232F3E;gradientColor=#F78E04;gradientDirection=north;fillColor=#D05C17;strokeColor=#ffffff;dashed=0;verticalLabelPosition=bottom;verticalAlign=top;align=center;html=1;fontSize=12;fontStyle=0;aspect=fixed;shape=mxgraph.aws4.resourceIcon;resIcon=mxgraph.aws4.kinesis_video_streams;" vertex="1" parent="1">
          <mxGeometry x="1410" y="207" width="28" height="28" as="geometry" />
        </mxCell>
        <mxCell id="JsxV9mpCJOxWXloCZP8o-78" value="" style="sketch=0;points=[[0,0,0],[0.25,0,0],[0.5,0,0],[0.75,0,0],[1,0,0],[0,1,0],[0.25,1,0],[0.5,1,0],[0.75,1,0],[1,1,0],[0,0.25,0],[0,0.5,0],[0,0.75,0],[1,0.25,0],[1,0.5,0],[1,0.75,0]];outlineConnect=0;fontColor=#232F3E;gradientColor=#F78E04;gradientDirection=north;fillColor=#D05C17;strokeColor=#ffffff;dashed=0;verticalLabelPosition=bottom;verticalAlign=top;align=center;html=1;fontSize=12;fontStyle=0;aspect=fixed;shape=mxgraph.aws4.resourceIcon;resIcon=mxgraph.aws4.kinesis_video_streams;" vertex="1" parent="1">
          <mxGeometry x="1420" y="217" width="28" height="28" as="geometry" />
        </mxCell>
        <mxCell id="JsxV9mpCJOxWXloCZP8o-79" value="" style="sketch=0;points=[[0,0,0],[0.25,0,0],[0.5,0,0],[0.75,0,0],[1,0,0],[0,1,0],[0.25,1,0],[0.5,1,0],[0.75,1,0],[1,1,0],[0,0.25,0],[0,0.5,0],[0,0.75,0],[1,0.25,0],[1,0.5,0],[1,0.75,0]];outlineConnect=0;fontColor=#232F3E;gradientColor=#F78E04;gradientDirection=north;fillColor=#D05C17;strokeColor=#ffffff;dashed=0;verticalLabelPosition=bottom;verticalAlign=top;align=center;html=1;fontSize=12;fontStyle=0;aspect=fixed;shape=mxgraph.aws4.resourceIcon;resIcon=mxgraph.aws4.kinesis_video_streams;" vertex="1" parent="1">
          <mxGeometry x="1430" y="227" width="28" height="28" as="geometry" />
        </mxCell>
        <mxCell id="JsxV9mpCJOxWXloCZP8o-80" value="" style="image;aspect=fixed;perimeter=ellipsePerimeter;html=1;align=center;shadow=0;dashed=0;spacingTop=3;image=img/lib/active_directory/web_server.svg;" vertex="1" parent="1">
          <mxGeometry x="1360" y="320" width="40" height="50" as="geometry" />
        </mxCell>
        <mxCell id="JsxV9mpCJOxWXloCZP8o-81" value="" style="sketch=0;points=[[0,0,0],[0.25,0,0],[0.5,0,0],[0.75,0,0],[1,0,0],[0,1,0],[0.25,1,0],[0.5,1,0],[0.75,1,0],[1,1,0],[0,0.25,0],[0,0.5,0],[0,0.75,0],[1,0.25,0],[1,0.5,0],[1,0.75,0]];outlineConnect=0;fontColor=#232F3E;gradientColor=#F78E04;gradientDirection=north;fillColor=#D05C17;strokeColor=#ffffff;dashed=0;verticalLabelPosition=bottom;verticalAlign=top;align=center;html=1;fontSize=12;fontStyle=0;aspect=fixed;shape=mxgraph.aws4.resourceIcon;resIcon=mxgraph.aws4.kinesis_video_streams;" vertex="1" parent="1">
          <mxGeometry x="1400" y="301.5" width="28" height="28" as="geometry" />
        </mxCell>
        <mxCell id="JsxV9mpCJOxWXloCZP8o-82" value="" style="sketch=0;points=[[0,0,0],[0.25,0,0],[0.5,0,0],[0.75,0,0],[1,0,0],[0,1,0],[0.25,1,0],[0.5,1,0],[0.75,1,0],[1,1,0],[0,0.25,0],[0,0.5,0],[0,0.75,0],[1,0.25,0],[1,0.5,0],[1,0.75,0]];outlineConnect=0;fontColor=#232F3E;gradientColor=#F78E04;gradientDirection=north;fillColor=#D05C17;strokeColor=#ffffff;dashed=0;verticalLabelPosition=bottom;verticalAlign=top;align=center;html=1;fontSize=12;fontStyle=0;aspect=fixed;shape=mxgraph.aws4.resourceIcon;resIcon=mxgraph.aws4.kinesis_video_streams;" vertex="1" parent="1">
          <mxGeometry x="1410" y="311.5" width="28" height="28" as="geometry" />
        </mxCell>
        <mxCell id="JsxV9mpCJOxWXloCZP8o-83" value="" style="sketch=0;points=[[0,0,0],[0.25,0,0],[0.5,0,0],[0.75,0,0],[1,0,0],[0,1,0],[0.25,1,0],[0.5,1,0],[0.75,1,0],[1,1,0],[0,0.25,0],[0,0.5,0],[0,0.75,0],[1,0.25,0],[1,0.5,0],[1,0.75,0]];outlineConnect=0;fontColor=#232F3E;gradientColor=#F78E04;gradientDirection=north;fillColor=#D05C17;strokeColor=#ffffff;dashed=0;verticalLabelPosition=bottom;verticalAlign=top;align=center;html=1;fontSize=12;fontStyle=0;aspect=fixed;shape=mxgraph.aws4.resourceIcon;resIcon=mxgraph.aws4.kinesis_video_streams;" vertex="1" parent="1">
          <mxGeometry x="1420" y="321.5" width="28" height="28" as="geometry" />
        </mxCell>
        <mxCell id="JsxV9mpCJOxWXloCZP8o-84" value="" style="sketch=0;points=[[0,0,0],[0.25,0,0],[0.5,0,0],[0.75,0,0],[1,0,0],[0,1,0],[0.25,1,0],[0.5,1,0],[0.75,1,0],[1,1,0],[0,0.25,0],[0,0.5,0],[0,0.75,0],[1,0.25,0],[1,0.5,0],[1,0.75,0]];outlineConnect=0;fontColor=#232F3E;gradientColor=#F78E04;gradientDirection=north;fillColor=#D05C17;strokeColor=#ffffff;dashed=0;verticalLabelPosition=bottom;verticalAlign=top;align=center;html=1;fontSize=12;fontStyle=0;aspect=fixed;shape=mxgraph.aws4.resourceIcon;resIcon=mxgraph.aws4.kinesis_video_streams;" vertex="1" parent="1">
          <mxGeometry x="1430" y="331.5" width="28" height="28" as="geometry" />
        </mxCell>
        <mxCell id="JsxV9mpCJOxWXloCZP8o-85" value="" style="image;aspect=fixed;perimeter=ellipsePerimeter;html=1;align=center;shadow=0;dashed=0;spacingTop=3;image=img/lib/active_directory/web_server.svg;" vertex="1" parent="1">
          <mxGeometry x="1360" y="420" width="40" height="50" as="geometry" />
        </mxCell>
        <mxCell id="JsxV9mpCJOxWXloCZP8o-86" value="" style="sketch=0;points=[[0,0,0],[0.25,0,0],[0.5,0,0],[0.75,0,0],[1,0,0],[0,1,0],[0.25,1,0],[0.5,1,0],[0.75,1,0],[1,1,0],[0,0.25,0],[0,0.5,0],[0,0.75,0],[1,0.25,0],[1,0.5,0],[1,0.75,0]];outlineConnect=0;fontColor=#232F3E;gradientColor=#F78E04;gradientDirection=north;fillColor=#D05C17;strokeColor=#ffffff;dashed=0;verticalLabelPosition=bottom;verticalAlign=top;align=center;html=1;fontSize=12;fontStyle=0;aspect=fixed;shape=mxgraph.aws4.resourceIcon;resIcon=mxgraph.aws4.kinesis_video_streams;" vertex="1" parent="1">
          <mxGeometry x="1400" y="401.5" width="28" height="28" as="geometry" />
        </mxCell>
        <mxCell id="JsxV9mpCJOxWXloCZP8o-87" value="" style="sketch=0;points=[[0,0,0],[0.25,0,0],[0.5,0,0],[0.75,0,0],[1,0,0],[0,1,0],[0.25,1,0],[0.5,1,0],[0.75,1,0],[1,1,0],[0,0.25,0],[0,0.5,0],[0,0.75,0],[1,0.25,0],[1,0.5,0],[1,0.75,0]];outlineConnect=0;fontColor=#232F3E;gradientColor=#F78E04;gradientDirection=north;fillColor=#D05C17;strokeColor=#ffffff;dashed=0;verticalLabelPosition=bottom;verticalAlign=top;align=center;html=1;fontSize=12;fontStyle=0;aspect=fixed;shape=mxgraph.aws4.resourceIcon;resIcon=mxgraph.aws4.kinesis_video_streams;" vertex="1" parent="1">
          <mxGeometry x="1410" y="411.5" width="28" height="28" as="geometry" />
        </mxCell>
        <mxCell id="JsxV9mpCJOxWXloCZP8o-88" value="" style="sketch=0;points=[[0,0,0],[0.25,0,0],[0.5,0,0],[0.75,0,0],[1,0,0],[0,1,0],[0.25,1,0],[0.5,1,0],[0.75,1,0],[1,1,0],[0,0.25,0],[0,0.5,0],[0,0.75,0],[1,0.25,0],[1,0.5,0],[1,0.75,0]];outlineConnect=0;fontColor=#232F3E;gradientColor=#F78E04;gradientDirection=north;fillColor=#D05C17;strokeColor=#ffffff;dashed=0;verticalLabelPosition=bottom;verticalAlign=top;align=center;html=1;fontSize=12;fontStyle=0;aspect=fixed;shape=mxgraph.aws4.resourceIcon;resIcon=mxgraph.aws4.kinesis_video_streams;" vertex="1" parent="1">
          <mxGeometry x="1420" y="421.5" width="28" height="28" as="geometry" />
        </mxCell>
        <mxCell id="JsxV9mpCJOxWXloCZP8o-89" value="" style="sketch=0;points=[[0,0,0],[0.25,0,0],[0.5,0,0],[0.75,0,0],[1,0,0],[0,1,0],[0.25,1,0],[0.5,1,0],[0.75,1,0],[1,1,0],[0,0.25,0],[0,0.5,0],[0,0.75,0],[1,0.25,0],[1,0.5,0],[1,0.75,0]];outlineConnect=0;fontColor=#232F3E;gradientColor=#F78E04;gradientDirection=north;fillColor=#D05C17;strokeColor=#ffffff;dashed=0;verticalLabelPosition=bottom;verticalAlign=top;align=center;html=1;fontSize=12;fontStyle=0;aspect=fixed;shape=mxgraph.aws4.resourceIcon;resIcon=mxgraph.aws4.kinesis_video_streams;" vertex="1" parent="1">
          <mxGeometry x="1430" y="431.5" width="28" height="28" as="geometry" />
        </mxCell>
        <mxCell id="JsxV9mpCJOxWXloCZP8o-90" value="" style="endArrow=classic;html=1;rounded=0;entryX=1;entryY=0;entryDx=0;entryDy=0;exitX=-0.175;exitY=0.534;exitDx=0;exitDy=0;exitPerimeter=0;" edge="1" parent="1" source="JsxV9mpCJOxWXloCZP8o-73" target="JsxV9mpCJOxWXloCZP8o-68">
          <mxGeometry width="50" height="50" relative="1" as="geometry">
            <mxPoint x="1000" y="440" as="sourcePoint" />
            <mxPoint x="1050" y="390" as="targetPoint" />
          </mxGeometry>
        </mxCell>
        <mxCell id="JsxV9mpCJOxWXloCZP8o-91" value="" style="endArrow=classic;html=1;rounded=0;" edge="1" parent="1">
          <mxGeometry width="50" height="50" relative="1" as="geometry">
            <mxPoint x="1360" y="340" as="sourcePoint" />
            <mxPoint x="1210" y="340" as="targetPoint" />
          </mxGeometry>
        </mxCell>
        <mxCell id="JsxV9mpCJOxWXloCZP8o-92" value="" style="endArrow=classic;html=1;rounded=0;entryX=1.077;entryY=0.893;entryDx=0;entryDy=0;exitX=0;exitY=0.5;exitDx=0;exitDy=0;entryPerimeter=0;" edge="1" parent="1" source="JsxV9mpCJOxWXloCZP8o-85" target="JsxV9mpCJOxWXloCZP8o-68">
          <mxGeometry width="50" height="50" relative="1" as="geometry">
            <mxPoint x="1373" y="262" as="sourcePoint" />
            <mxPoint x="1225" y="341" as="targetPoint" />
          </mxGeometry>
        </mxCell>
        <mxCell id="JsxV9mpCJOxWXloCZP8o-93" value="" style="html=1;verticalLabelPosition=bottom;align=center;labelBackgroundColor=#ffffff;verticalAlign=top;strokeWidth=2;strokeColor=#0080F0;shadow=0;dashed=0;shape=mxgraph.ios7.icons.smartphone;" vertex="1" parent="1">
          <mxGeometry x="1654" y="178" width="18" height="30" as="geometry" />
        </mxCell>
        <mxCell id="JsxV9mpCJOxWXloCZP8o-94" value="" style="image;html=1;image=img/lib/clip_art/computers/Laptop_128x128.png" vertex="1" parent="1">
          <mxGeometry x="1640" y="230" width="60" height="52" as="geometry" />
        </mxCell>
        <mxCell id="JsxV9mpCJOxWXloCZP8o-95" value="" style="endArrow=classic;startArrow=classic;html=1;rounded=0;" edge="1" parent="1">
          <mxGeometry width="50" height="50" relative="1" as="geometry">
            <mxPoint x="1460" y="220" as="sourcePoint" />
            <mxPoint x="1650" y="190" as="targetPoint" />
          </mxGeometry>
        </mxCell>
        <mxCell id="JsxV9mpCJOxWXloCZP8o-96" value="" style="endArrow=classic;startArrow=classic;html=1;rounded=0;entryX=0;entryY=0.5;entryDx=0;entryDy=0;" edge="1" parent="1" target="JsxV9mpCJOxWXloCZP8o-94">
          <mxGeometry width="50" height="50" relative="1" as="geometry">
            <mxPoint x="1460" y="230" as="sourcePoint" />
            <mxPoint x="1660" y="200" as="targetPoint" />
          </mxGeometry>
        </mxCell>
        <mxCell id="JsxV9mpCJOxWXloCZP8o-100" value="" style="html=1;verticalLabelPosition=bottom;align=center;labelBackgroundColor=#ffffff;verticalAlign=top;strokeWidth=2;strokeColor=#0080F0;shadow=0;dashed=0;shape=mxgraph.ios7.icons.smartphone;" vertex="1" parent="1">
          <mxGeometry x="1654" y="293.5" width="18" height="30" as="geometry" />
        </mxCell>
        <mxCell id="JsxV9mpCJOxWXloCZP8o-101" value="" style="image;html=1;image=img/lib/clip_art/computers/Laptop_128x128.png" vertex="1" parent="1">
          <mxGeometry x="1640" y="345.5" width="60" height="52" as="geometry" />
        </mxCell>
        <mxCell id="JsxV9mpCJOxWXloCZP8o-102" value="" style="endArrow=classic;startArrow=classic;html=1;rounded=0;" edge="1" parent="1">
          <mxGeometry width="50" height="50" relative="1" as="geometry">
            <mxPoint x="1460" y="335.5" as="sourcePoint" />
            <mxPoint x="1650" y="305.5" as="targetPoint" />
          </mxGeometry>
        </mxCell>
        <mxCell id="JsxV9mpCJOxWXloCZP8o-103" value="" style="endArrow=classic;startArrow=classic;html=1;rounded=0;entryX=0;entryY=0.5;entryDx=0;entryDy=0;" edge="1" parent="1" target="JsxV9mpCJOxWXloCZP8o-101">
          <mxGeometry width="50" height="50" relative="1" as="geometry">
            <mxPoint x="1460" y="345.5" as="sourcePoint" />
            <mxPoint x="1660" y="315.5" as="targetPoint" />
          </mxGeometry>
        </mxCell>
        <mxCell id="JsxV9mpCJOxWXloCZP8o-104" value="" style="html=1;verticalLabelPosition=bottom;align=center;labelBackgroundColor=#ffffff;verticalAlign=top;strokeWidth=2;strokeColor=#0080F0;shadow=0;dashed=0;shape=mxgraph.ios7.icons.smartphone;" vertex="1" parent="1">
          <mxGeometry x="1652" y="403" width="18" height="30" as="geometry" />
        </mxCell>
        <mxCell id="JsxV9mpCJOxWXloCZP8o-105" value="" style="image;html=1;image=img/lib/clip_art/computers/Laptop_128x128.png" vertex="1" parent="1">
          <mxGeometry x="1638" y="455" width="60" height="52" as="geometry" />
        </mxCell>
        <mxCell id="JsxV9mpCJOxWXloCZP8o-106" value="" style="endArrow=classic;startArrow=classic;html=1;rounded=0;" edge="1" parent="1">
          <mxGeometry width="50" height="50" relative="1" as="geometry">
            <mxPoint x="1458" y="445" as="sourcePoint" />
            <mxPoint x="1648" y="415" as="targetPoint" />
          </mxGeometry>
        </mxCell>
        <mxCell id="JsxV9mpCJOxWXloCZP8o-107" value="" style="endArrow=classic;startArrow=classic;html=1;rounded=0;entryX=0;entryY=0.5;entryDx=0;entryDy=0;" edge="1" parent="1" target="JsxV9mpCJOxWXloCZP8o-105">
          <mxGeometry width="50" height="50" relative="1" as="geometry">
            <mxPoint x="1458" y="455" as="sourcePoint" />
            <mxPoint x="1658" y="425" as="targetPoint" />
          </mxGeometry>
        </mxCell>
        <mxCell id="JsxV9mpCJOxWXloCZP8o-108" value="" style="editableCssRules=.*;html=1;shape=image;verticalLabelPosition=bottom;labelBackgroundColor=#ffffff;verticalAlign=top;aspect=fixed;imageAspect=0;image=data:image/svg+xml,PHN2ZyB4bWxucz0iaHR0cDovL3d3dy53My5vcmcvMjAwMC9zdmciIHhtbG5zOnY9Imh0dHBzOi8vdmVjdGEuaW8vbmFubyIgd2lkdGg9IjIwIiBoZWlnaHQ9IjIwIiB2aWV3Qm94PSIwIDAgMjAgMjAiPiYjeGE7CTxzdHlsZSB0eXBlPSJ0ZXh0L2NzcyI+JiN4YTsJLnN0MHtmaWxsOiM0Mjg1ZjQ7fSYjeGE7CS5zdDF7ZmlsbDojNjY5ZGY2O30mI3hhOwkuc3Qye2ZpbGw6I2FlY2JmYTt9JiN4YTsJPC9zdHlsZT4mI3hhOwk8cGF0aCBjbGFzcz0ic3QxIiBkPSJNMTMuMTMgNS42M1YzLjIxTDEwIDB2Mi40MXptMy43NSA3LjVMMjAgMTBoLTIuNWwtMy4xMiAzLjEzem0tMTMuNzUgMEwwIDEwaDIuNWwzLjEzIDMuMTN6bTEwIDEuMjV2Mi40MUwxMCAyMHYtMi40MXoiIGZpbGwtcnVsZT0iZXZlbm9kZCIvPiYjeGE7CTxwYXRoIGNsYXNzPSJzdDIiIGQ9Ik02Ljg4IDUuNjNMMTAgMi40MVYwTDYuODggMy4yMXpNMTcuNSAxMEgyMGwtMy4xMi0zLjEyaC0yLjV6bS0xNSAwSDBsMy4xMy0zLjEyaDIuNXptNC4zOCA0LjM4TDEwIDE3LjU5VjIwbC0zLjEyLTMuMjF6bTAtNy41aDYuMjV2Ni4yNUg2Ljg4eiIgZmlsbC1ydWxlPSJldmVub2RkIi8+JiN4YTsJPHBhdGggY2xhc3M9InN0MSIgZD0iTTYuODggMTMuMTNsNi4yNS02LjI1djYuMjV6IiBmaWxsLXJ1bGU9ImV2ZW5vZGQiLz4mI3hhOwk8cGF0aCBjbGFzcz0ic3QwIiBkPSJNMTAgMTBsMy4xMy0zLjEydjYuMjV6IiBmaWxsLXJ1bGU9ImV2ZW5vZGQiLz4mI3hhOzwvc3ZnPg==;" vertex="1" parent="1">
          <mxGeometry x="1520" y="50" width="40" height="40" as="geometry" />
        </mxCell>
        <mxCell id="JsxV9mpCJOxWXloCZP8o-109" value="" style="endArrow=classic;startArrow=classic;html=1;rounded=0;entryX=0;entryY=0.5;entryDx=0;entryDy=0;" edge="1" parent="1" target="JsxV9mpCJOxWXloCZP8o-108">
          <mxGeometry width="50" height="50" relative="1" as="geometry">
            <mxPoint x="1380" y="210" as="sourcePoint" />
            <mxPoint x="1030" y="60" as="targetPoint" />
          </mxGeometry>
        </mxCell>
        <mxCell id="JsxV9mpCJOxWXloCZP8o-110" value="" style="endArrow=classic;html=1;rounded=0;entryX=1;entryY=0.75;entryDx=0;entryDy=0;" edge="1" parent="1" target="JsxV9mpCJOxWXloCZP8o-108">
          <mxGeometry width="50" height="50" relative="1" as="geometry">
            <mxPoint x="1660" y="170" as="sourcePoint" />
            <mxPoint x="1680" y="90" as="targetPoint" />
          </mxGeometry>
        </mxCell>
        <mxCell id="JsxV9mpCJOxWXloCZP8o-111" value="Video from multiple sources are collected and combined" style="text;html=1;strokeColor=none;fillColor=none;align=center;verticalAlign=middle;whiteSpace=wrap;rounded=0;" vertex="1" parent="1">
          <mxGeometry x="70" y="487" width="300" height="30" as="geometry" />
        </mxCell>
        <mxCell id="JsxV9mpCJOxWXloCZP8o-112" value="Servers in different regions" style="text;html=1;strokeColor=none;fillColor=none;align=center;verticalAlign=middle;whiteSpace=wrap;rounded=0;" vertex="1" parent="1">
          <mxGeometry x="510" y="440" width="60" height="40" as="geometry" />
        </mxCell>
        <mxCell id="JsxV9mpCJOxWXloCZP8o-113" value="Video processing servers to convert video into different format and resolution" style="text;html=1;strokeColor=none;fillColor=none;align=center;verticalAlign=middle;whiteSpace=wrap;rounded=0;" vertex="1" parent="1">
          <mxGeometry x="870" y="540" width="120" height="60" as="geometry" />
        </mxCell>
        <mxCell id="JsxV9mpCJOxWXloCZP8o-114" value="Video Stream Queue" style="text;html=1;strokeColor=none;fillColor=none;align=center;verticalAlign=middle;whiteSpace=wrap;rounded=0;" vertex="1" parent="1">
          <mxGeometry x="698" y="385" width="60" height="45" as="geometry" />
        </mxCell>
        <mxCell id="JsxV9mpCJOxWXloCZP8o-115" value="Database Server" style="text;html=1;strokeColor=none;fillColor=none;align=center;verticalAlign=middle;whiteSpace=wrap;rounded=0;" vertex="1" parent="1">
          <mxGeometry x="1151" y="385" width="60" height="30" as="geometry" />
        </mxCell>
        <mxCell id="JsxV9mpCJOxWXloCZP8o-116" value="Front-End Server" style="text;html=1;strokeColor=none;fillColor=none;align=center;verticalAlign=middle;whiteSpace=wrap;rounded=0;" vertex="1" parent="1">
          <mxGeometry x="1368" y="499" width="60" height="30" as="geometry" />
        </mxCell>
        <mxCell id="JsxV9mpCJOxWXloCZP8o-117" value="CDN" style="text;html=1;strokeColor=none;fillColor=none;align=center;verticalAlign=middle;whiteSpace=wrap;rounded=0;" vertex="1" parent="1">
          <mxGeometry x="1510" y="90" width="60" height="30" as="geometry" />
        </mxCell>
        <mxCell id="JsxV9mpCJOxWXloCZP8o-118" value="Viewers" style="text;html=1;strokeColor=none;fillColor=none;align=center;verticalAlign=middle;whiteSpace=wrap;rounded=0;" vertex="1" parent="1">
          <mxGeometry x="1630" y="517" width="60" height="30" as="geometry" />
        </mxCell>
        <mxCell id="JsxV9mpCJOxWXloCZP8o-119" value="" style="endArrow=classic;html=1;rounded=0;entryX=-0.138;entryY=-0.06;entryDx=0;entryDy=0;entryPerimeter=0;" edge="1" parent="1" target="JsxV9mpCJOxWXloCZP8o-73">
          <mxGeometry width="50" height="50" relative="1" as="geometry">
            <mxPoint x="1000" y="210" as="sourcePoint" />
            <mxPoint x="1120" y="90" as="targetPoint" />
          </mxGeometry>
        </mxCell>
        <mxCell id="JsxV9mpCJOxWXloCZP8o-120" value="Data Transfer via RSTP or WebRTC" style="text;html=1;strokeColor=none;fillColor=none;align=center;verticalAlign=middle;whiteSpace=wrap;rounded=0;" vertex="1" parent="1">
          <mxGeometry x="400" y="540" width="120" height="30" as="geometry" />
        </mxCell>
        <mxCell id="JsxV9mpCJOxWXloCZP8o-123" value="Data Pushed to server" style="text;html=1;strokeColor=none;fillColor=none;align=center;verticalAlign=middle;whiteSpace=wrap;rounded=0;" vertex="1" parent="1">
          <mxGeometry x="1101" y="177" width="140" height="30" as="geometry" />
        </mxCell>
        <mxCell id="JsxV9mpCJOxWXloCZP8o-125" value="HLS" style="text;html=1;strokeColor=none;fillColor=none;align=center;verticalAlign=middle;whiteSpace=wrap;rounded=0;" vertex="1" parent="1">
          <mxGeometry x="1510" y="167" width="60" height="30" as="geometry" />
        </mxCell>
      </root>
    </mxGraphModel>
  </diagram>
</mxfile>
